<?xml version="1.0" encoding="UTF-8"?>
<svg version="1.1" xmlns="http://www.w3.org/2000/svg" width="320" height="132">
<path d="M0 0 C4.29 0 8.58 0 13 0 C13.01458252 0.94319092 13.02916504 1.88638184 13.04418945 2.8581543 C13.10539606 6.37158661 13.17957508 9.88425446 13.26245117 13.3972168 C13.29561916 14.91501621 13.32367632 16.43293656 13.34643555 17.95092773 C13.38013278 20.13838019 13.43245204 22.32473264 13.48828125 24.51171875 C13.51446533 25.82615967 13.54064941 27.14060059 13.56762695 28.49487305 C14.01989741 32.16130274 14.78696718 34.07925456 17 37 C20.64710657 39.29246699 23.93146722 39.2620524 28.06640625 38.61328125 C31.28586864 37.59215884 32.95931726 35.59723258 35 33 C36.14294314 29.57117059 36.20964472 26.75917162 36.31640625 23.14453125 C36.33718735 22.48289474 36.35796844 21.82125824 36.37937927 21.13957214 C36.44464727 19.03065148 36.50365344 16.92160865 36.5625 14.8125 C36.60570689 13.38084685 36.64932188 11.94920596 36.69335938 10.51757812 C36.80107185 7.01184204 36.90031308 3.50601025 37 0 C41.29 0 45.58 0 50 0 C50.07450967 7.2224709 50.12877235 14.44471487 50.16479492 21.66748047 C50.17982224 24.12129619 50.2002498 26.57508533 50.22631836 29.02880859 C50.2629682 32.56875192 50.27978755 36.10833814 50.29296875 39.6484375 C50.30845261 40.73426117 50.32393646 41.82008484 50.33988953 42.93881226 C50.34200491 52.65088445 48.96694759 61.18856267 41.98046875 68.3046875 C33.98331177 75.15038006 25.09118842 74.51429133 15.07714844 74.29052734 C13 74 13 74 8 72 C8 67.71 8 63.42 8 59 C9.27875 59.33 10.5575 59.66 11.875 60 C18.24502355 61.39438311 24.20520019 61.9654763 30.4375 59.8125 C33.36233278 57.74371584 34.61796758 56.30152188 36 53 C36.25136033 49.79083829 36.25136033 49.79083829 36 47 C35.0925 47.639375 34.185 48.27875 33.25 48.9375 C28.36056397 52.04041132 24.80806771 52.46839256 19 52 C12.85376782 50.38308313 8.32656391 48.08337857 4.25390625 43.171875 C-0.8376624 34.35283397 -0.3542058 25.86604791 -0.1875 16 C-0.17242973 14.44662752 -0.15874546 12.89324094 -0.14648438 11.33984375 C-0.11365497 7.55954385 -0.06200254 3.77992937 0 0 Z " fill="#FFFFFF" transform="translate(228,41)"/>
<path d="M0 0 C3.96 0 7.92 0 12 0 C12.04898438 1.7840625 12.09796875 3.568125 12.1484375 5.40625 C12.2235041 7.7708478 12.29905023 10.13543041 12.375 12.5 C12.4059375 13.67304687 12.436875 14.84609375 12.46875 16.0546875 C12.64698505 26.74045204 12.64698505 26.74045204 16.625 36.4375 C19.94283272 38.62028468 23.10011678 39.18034142 27 39 C30.89702597 37.75001054 32.49473229 36.82595172 34.63598633 33.32568359 C36.15679956 29.61769759 36.42632504 26.847988 36.51171875 22.8515625 C36.52966995 22.19417084 36.54762115 21.53677917 36.56611633 20.85946655 C36.61984437 18.78137428 36.65399125 16.70350653 36.6875 14.625 C36.72070653 13.20700024 36.75519924 11.78902999 36.79101562 10.37109375 C36.87794746 6.91403701 36.93832655 3.45796647 37 0 C41.29 0 45.58 0 50 0 C50.0542219 4.47933118 50.09378396 8.95799792 50.125 13.4375 C50.14175781 14.69755859 50.15851563 15.95761719 50.17578125 17.25585938 C50.23324662 28.26047688 49.71828758 37.56221104 42 46 C35.48479605 50.81758039 29.079066 52.52977482 21 52 C13.7968054 50.54792744 8.12952486 48.47793751 3.78515625 42.26171875 C0.32867614 36.51731942 -0.14607661 31.96880196 -0.09765625 25.390625 C-0.0962413 24.66381531 -0.09482635 23.93700562 -0.09336853 23.18817139 C-0.08778792 20.87540506 -0.07523904 18.56273688 -0.0625 16.25 C-0.05748249 14.67838682 -0.05292002 13.10677211 -0.04882812 11.53515625 C-0.03782485 7.69006657 -0.02057361 3.8450499 0 0 Z " fill="#FFFFFF" transform="translate(42,41)"/>
<path d="M0 0 C0 3.96 0 7.92 0 12 C-1.711875 12.2475 -3.42375 12.495 -5.1875 12.75 C-11.38279339 13.90660068 -11.38279339 13.90660068 -16 18 C-16.97867155 21.01410013 -17.49064998 23.8512908 -18 27 C-13.38 27 -8.76 27 -4 27 C-4 30.96 -4 34.92 -4 39 C-8.62 39 -13.24 39 -18 39 C-18 51.21 -18 63.42 -18 76 C-22.29 76 -26.58 76 -31 76 C-31.07448479 68.49269753 -31.12876082 60.98561303 -31.16479492 53.47802734 C-31.17982636 50.92720794 -31.20025705 48.37641415 -31.22631836 45.82568359 C-31.26294972 42.14674537 -31.27978346 38.46815065 -31.29296875 34.7890625 C-31.30845261 33.65949127 -31.32393646 32.52992004 -31.33988953 31.36611938 C-31.34195511 21.51768448 -30.04252365 12.9543459 -23.00390625 5.6953125 C-15.88356098 -0.32852736 -9.05711167 -0.41641893 0 0 Z " fill="#FFFFFF" transform="translate(221,16)"/>
<path d="M0 0 C4.29 0 8.58 0 13 0 C13 4.62 13 9.24 13 14 C18.28 14 23.56 14 29 14 C29 17.96 29 21.92 29 26 C23.72 26 18.44 26 13 26 C13.103125 28.51625 13.20625 31.0325 13.3125 33.625 C13.34984253 34.79603271 13.34984253 34.79603271 13.38793945 35.99072266 C13.62952381 40.62138349 14.44268804 44.00457615 17 48 C21.76960932 50.75169768 25.54168431 51.33418259 31 51 C31 54.96 31 58.92 31 63 C25.75819495 65.62090252 19.62261611 63.69533363 14.359375 61.96484375 C7.4251465 59.12915759 3.85584752 53.64468108 1 47 C-0.32032708 42.15357514 -0.12644908 37.30532236 -0.09765625 32.32421875 C-0.0962413 31.3990596 -0.09482635 30.47390045 -0.09336853 29.52070618 C-0.08778715 26.57627073 -0.07523805 23.63191233 -0.0625 20.6875 C-0.05748259 18.68685006 -0.05292011 16.68619892 -0.04882812 14.68554688 C-0.03782381 9.79033506 -0.02057198 4.89518058 0 0 Z " fill="#FFFFFF" transform="translate(126,29)"/>
<path d="M0 0 C4.29 0 8.58 0 13 0 C13 16.83 13 33.66 13 51 C8.71 51 4.42 51 0 51 C0 34.17 0 17.34 0 0 Z " fill="#FFFFFF" transform="translate(166,41)"/>
<path d="M0 0 C4.29 0 8.58 0 13 0 C13 16.83 13 33.66 13 51 C8.71 51 4.42 51 0 51 C0 34.17 0 17.34 0 0 Z " fill="#FFFFFF" transform="translate(103,41)"/>
<path d="M0 0 C1.75763922 3.20510682 1.67616654 6.4318417 1.0625 9.9375 C-0.4375 12.4375 -0.4375 12.4375 -2.9375 13.9375 C-6.4588097 14.55390633 -9.69247415 14.66041824 -12.875 12.8125 C-14.90361503 9.23259113 -15.24278416 6.15863663 -14.25 2.1875 C-11.02839933 -3.335244 -5.28703159 -2.8993399 0 0 Z " fill="#FFFFFF" transform="translate(178.9375,22.0625)"/>
<path d="M0 0 C1.75763922 3.20510682 1.67616654 6.4318417 1.0625 9.9375 C-0.4375 12.4375 -0.4375 12.4375 -2.9375 13.9375 C-6.4588097 14.55390633 -9.69247415 14.66041824 -12.875 12.8125 C-14.90361503 9.23259113 -15.24278416 6.15863663 -14.25 2.1875 C-11.02839933 -3.335244 -5.28703159 -2.8993399 0 0 Z " fill="#FFFFFF" transform="translate(115.9375,22.0625)"/>
</svg>
