<svg xmlns="http://www.w3.org/2000/svg" width="320" height="132" fill="none"><path fill="#000" d="M79.188 41.63v25.126c0 8.443-4.02 14.373-12.563 14.373-8.543 0-12.564-5.93-12.564-14.373V41.63H42v25.126c0 14.273 9.045 25.63 24.625 25.63 15.579 0 24.624-11.357 24.624-25.63V41.63H79.19Zm36.182 0h-12.061v50.253h12.061V41.63Zm-6.03-5.73c4.825 0 7.639-3.417 7.639-7.739 0-4.12-2.814-7.638-7.639-7.638-4.824 0-7.738 3.417-7.738 7.638 0 4.222 2.914 7.739 7.738 7.739Zm44.927 7.438h-15.579v-13.77h-12.061v37.188c0 14.273 9.65 25.63 25.127 25.63 2.513 0 3.217-.302 4.925-.503V80.626c-1.306.201-2.513.502-4.522.502-9.147 0-13.469-5.93-13.469-14.372V54.595h15.579V43.338Zm24.222-1.708h-12.061v50.253h12.061V41.63Zm-6.03-5.73c4.825 0 7.639-3.417 7.639-7.739 0-4.12-2.814-7.638-7.639-7.638s-7.739 3.417-7.739 7.638c0 4.222 2.914 7.739 7.739 7.739Zm44.022 7.438h-13.87V41.63c0-7.84 3.518-13.972 14.474-13.972 1.306 0 2.511.303 3.818.503V16.503c-1.507-.202-2.914-.503-4.422-.503-16.583 0-25.932 11.459-25.932 25.73v50.153h12.062V54.595h13.87V43.338Zm48.847 23.418c0 8.443-4.524 14.373-13.066 14.373-8.543 0-12.062-5.829-12.062-14.373V41.63h-12.061v25.126c0 14.273 9.046 25.63 22.816 25.63 6.231 0 11.056-2.312 14.373-6.231v3.014c0 7.94-3.518 14.173-14.473 14.173-5.427 0-11.458-1.107-14.875-2.916v12.362c4.322 1.408 10.05 2.212 15.478 2.212 16.583 0 25.931-11.459 25.931-25.73V41.63h-12.061v25.126Z"/></svg>